<svg width="19" height="19" xmlns="http://www.w3.org/2000/svg" xmlns:xlink="http://www.w3.org/1999/xlink" xml:space="preserve" overflow="hidden"><g transform="translate(-181 -646)"><path d="M190.253 649.845C190.17 649.845 190.089 649.845 190.01 649.842 186.931 649.905 184.486 652.45 184.547 655.529 184.548 656.131 184.641 656.729 184.824 657.303 185.001 657.833 185.267 658.328 185.61 658.769 184.182 660.395 183.842 661.498 183.773 662.046 183.76 662.155 183.837 662.254 183.945 662.267 183.953 662.268 183.961 662.269 183.969 662.269 184.068 662.269 184.153 662.194 184.165 662.095 184.215 661.692 184.489 660.675 185.857 659.096L185.913 659.17C186.671 660.195 187.782 660.903 189.031 661.155 189.35 661.214 189.672 661.244 189.996 661.244L190.029 661.244C190.978 661.244 191.909 660.985 192.721 660.494 196.901 658.073 197.427 653.617 197.427 648.612 197.427 648.612 193.127 649.845 190.253 649.845ZM192.517 660.155C191.766 660.608 190.906 660.848 190.029 660.848L189.996 660.848C189.697 660.848 189.398 660.82 189.104 660.766 187.95 660.533 186.925 659.878 186.229 658.93L186.125 658.794C187.225 657.592 188.936 656.094 191.599 654.319 191.69 654.258 191.715 654.135 191.654 654.044 191.594 653.953 191.471 653.929 191.38 653.99 188.742 655.748 187.013 657.244 185.881 658.469 185.586 658.08 185.356 657.645 185.201 657.182 185.03 656.645 184.943 656.084 184.943 655.52 184.89 652.664 187.155 650.303 190.01 650.237 190.089 650.239 190.172 650.24 190.254 650.24 192.597 650.24 195.797 649.457 197.03 649.13 196.98 654.367 196.158 658.047 192.517 660.155Z" stroke="#FFFFFF" stroke-width="0.730764" fill="none"/></g></svg>