<svg width="19" height="19" xmlns="http://www.w3.org/2000/svg" xmlns:xlink="http://www.w3.org/1999/xlink" xml:space="preserve" overflow="hidden"><g transform="translate(-323 -588)"><path d="M338.322 603.042 326.958 591.678 326.958 589.979 324.979 589.979 324.979 591.958 325.771 591.958 325.771 603.042 324.979 603.042 324.979 605.021 326.958 605.021 326.958 604.229 338.042 604.229 338.042 605.021 340.021 605.021 340.021 603.042ZM325.375 590.375 326.562 590.375 326.562 591.562 325.375 591.562ZM326.562 604.625 325.375 604.625 325.375 603.438 326.562 603.438ZM326.167 603.042 326.167 600.271 329.729 600.271 329.729 603.833 326.958 603.833 326.958 603.042ZM330.125 603.833 330.125 599.875 326.167 599.875 326.167 591.958 326.678 591.958 338.042 603.321 338.042 603.833ZM339.625 604.625 338.438 604.625 338.438 603.438 339.625 603.438Z" stroke="#FFFFFF" stroke-width="0.730764" fill="none"/></g></svg>