<svg width="22" height="23" xmlns="http://www.w3.org/2000/svg" xmlns:xlink="http://www.w3.org/1999/xlink" xml:space="preserve" overflow="hidden"><g transform="translate(-607 -445)"><path d="M20.9944 9.09792 11.0014 5.52292 1.00833 9.09792 2.97917 9.78977 2.97917 13.7729C2.97917 13.8995 3.08176 14.0021 3.20833 14.0021 3.3349 14.0021 3.4375 13.8995 3.4375 13.7729L3.4375 9.95042 5.05037 10.5165 5.05037 13.8165C5.05037 15.1594 7.77563 16.2938 11.0014 16.2938 14.2271 16.2938 16.9526 15.1594 16.9526 13.8169L16.9526 10.5165ZM11.0014 6.0099 19.6167 9.09196C19.6201 9.0931 19.6201 9.09494 19.6167 9.09608L11.0014 12.1188 2.387 9.09608C2.38356 9.09494 2.38356 9.0931 2.387 9.09196ZM16.4943 13.8169C16.4943 14.7503 14.0949 15.8354 11.0014 15.8354 7.90785 15.8354 5.50871 14.7503 5.50871 13.8169L5.50871 10.6773 11.0014 12.6042 16.4943 10.6769Z" stroke="#FFFFFF" stroke-width="1.1282" fill="none" transform="matrix(1 0 0 1.04545 607 445)"/></g></svg>